G04 EAGLE Gerber RS-274X export*
G75*
%MOMM*%
%FSLAX34Y34*%
%LPD*%
%INSolderpaste Top*%
%IPPOS*%
%AMOC8*
5,1,8,0,0,1.08239X$1,22.5*%
G01*
%ADD10R,2.500000X3.500000*%
%ADD11R,1.600000X1.800000*%
%ADD12R,1.800000X1.600000*%
%ADD13R,3.500000X2.500000*%
%ADD14R,1.700000X1.800000*%
%ADD15R,1.800000X1.700000*%
%ADD16R,5.500000X3.850000*%
%ADD17R,1.000000X1.400000*%
%ADD18R,1.600000X1.803000*%
%ADD19R,1.803000X1.600000*%
%ADD20R,0.600000X1.800000*%
%ADD21R,0.650000X1.300000*%
%ADD22R,1.500000X1.000000*%
%ADD23R,1.000000X1.500000*%
%ADD24R,6.000000X6.000000*%
%ADD25R,1.397000X2.108200*%
%ADD26R,1.750000X0.400000*%
%ADD27R,1.252481X1.249588*%
%ADD28R,1.249938X1.249938*%
%ADD29R,1.252519X1.252519*%
%ADD30R,1.249544X1.252731*%
%ADD31R,0.900000X0.254000*%
%ADD32R,0.254000X0.900000*%
%ADD33R,0.250000X0.475000*%
%ADD34R,0.375000X0.250000*%
%ADD35R,1.300000X1.100000*%
%ADD36R,1.800000X3.700000*%
%ADD37R,2.000000X1.500000*%


D10*
X101600Y-424700D03*
X101600Y-489700D03*
D11*
G36*
X344994Y429679D02*
X333681Y440992D01*
X346408Y453719D01*
X357721Y442406D01*
X344994Y429679D01*
G37*
G36*
X364792Y409881D02*
X353479Y421194D01*
X366206Y433921D01*
X377519Y422608D01*
X364792Y409881D01*
G37*
D12*
X-444500Y204500D03*
X-444500Y176500D03*
X241300Y496600D03*
X241300Y468600D03*
X-152400Y522000D03*
X-152400Y494000D03*
D13*
X-172200Y-317500D03*
X-107200Y-317500D03*
D12*
X-177800Y293400D03*
X-177800Y265400D03*
X139700Y443200D03*
X139700Y471200D03*
D11*
G36*
X-429679Y344994D02*
X-440992Y333681D01*
X-453719Y346408D01*
X-442406Y357721D01*
X-429679Y344994D01*
G37*
G36*
X-409881Y364792D02*
X-421194Y353479D01*
X-433921Y366206D01*
X-422608Y377519D01*
X-409881Y364792D01*
G37*
X-64800Y571500D03*
X-36800Y571500D03*
D14*
X-228600Y-385900D03*
X-228600Y-426900D03*
D15*
X-436700Y292100D03*
X-477700Y292100D03*
D16*
X-127000Y-506950D03*
X-127000Y-407450D03*
D17*
X-317500Y179500D03*
X-327000Y201500D03*
X-308000Y201500D03*
X-317500Y268400D03*
X-327000Y290400D03*
X-308000Y290400D03*
D18*
X179320Y406400D03*
X150880Y406400D03*
X150880Y266700D03*
X179320Y266700D03*
D19*
X-177800Y201680D03*
X-177800Y230120D03*
D18*
X61980Y76200D03*
X90420Y76200D03*
G36*
X-346262Y397014D02*
X-357576Y408328D01*
X-344828Y421076D01*
X-333514Y409762D01*
X-346262Y397014D01*
G37*
G36*
X-366372Y417124D02*
X-377686Y428438D01*
X-364938Y441186D01*
X-353624Y429872D01*
X-366372Y417124D01*
G37*
G36*
X-320862Y422414D02*
X-332176Y433728D01*
X-319428Y446476D01*
X-308114Y435162D01*
X-320862Y422414D01*
G37*
G36*
X-340972Y442524D02*
X-352286Y453838D01*
X-339538Y466586D01*
X-328224Y455272D01*
X-340972Y442524D01*
G37*
X179320Y127000D03*
X150880Y127000D03*
D19*
X-190500Y493780D03*
X-190500Y522220D03*
X279400Y468380D03*
X279400Y496820D03*
D18*
X179320Y368300D03*
X150880Y368300D03*
X11180Y571500D03*
X39620Y571500D03*
X115820Y571500D03*
X87380Y571500D03*
G36*
X402094Y352612D02*
X413408Y363926D01*
X426156Y351178D01*
X414842Y339864D01*
X402094Y352612D01*
G37*
G36*
X422204Y372722D02*
X433518Y384036D01*
X446266Y371288D01*
X434952Y359974D01*
X422204Y372722D01*
G37*
G36*
X430034Y325942D02*
X441348Y337256D01*
X454096Y324508D01*
X442782Y313194D01*
X430034Y325942D01*
G37*
G36*
X450144Y346052D02*
X461458Y357366D01*
X474206Y344618D01*
X462892Y333304D01*
X450144Y346052D01*
G37*
X-303280Y228600D03*
X-331720Y228600D03*
X-303280Y317500D03*
X-331720Y317500D03*
X150880Y228600D03*
X179320Y228600D03*
D20*
X69850Y476550D03*
X57150Y476550D03*
X44450Y476550D03*
X31750Y476550D03*
X19050Y476550D03*
X6350Y476550D03*
X-6350Y476550D03*
X-19050Y476550D03*
X-31750Y476550D03*
X-44450Y476550D03*
X-57150Y476550D03*
X-69850Y476550D03*
X-69850Y387050D03*
X-57150Y387050D03*
X-44450Y387050D03*
X-31750Y387050D03*
X-19050Y387050D03*
X-6350Y387050D03*
X6350Y387050D03*
X19050Y387050D03*
X31750Y387050D03*
X44450Y387050D03*
X57150Y387050D03*
X69850Y387050D03*
D21*
X19400Y-455700D03*
X6700Y-455700D03*
X-6000Y-455700D03*
X-18700Y-455700D03*
X-18700Y-509500D03*
X-6000Y-509500D03*
X6700Y-509500D03*
X19400Y-509500D03*
D22*
X-87420Y254150D03*
X-87420Y241450D03*
X-87420Y228750D03*
X-87420Y216050D03*
X-87420Y203350D03*
X-87420Y190650D03*
X-87420Y177950D03*
X-87420Y165250D03*
D23*
X62380Y109750D03*
D22*
X97580Y127150D03*
X97580Y139850D03*
X97580Y152550D03*
X97580Y165250D03*
X97580Y177950D03*
X97580Y190650D03*
X97580Y203350D03*
D23*
X-26520Y109750D03*
D22*
X-87420Y152550D03*
X-87420Y139850D03*
X-87420Y127150D03*
D23*
X-51920Y109750D03*
X-39220Y109750D03*
D22*
X-87420Y266850D03*
X-87420Y279550D03*
X-87420Y292250D03*
D23*
X-13820Y109750D03*
X-1120Y109750D03*
X11580Y109750D03*
X49680Y109750D03*
X36980Y109750D03*
X24280Y109750D03*
D22*
X97580Y216050D03*
X97580Y228750D03*
X97580Y241450D03*
X97580Y254150D03*
X97580Y266850D03*
X97580Y279550D03*
X97580Y292250D03*
D24*
X8080Y215250D03*
D25*
G36*
X-175475Y596689D02*
X-180821Y609595D01*
X-161345Y617663D01*
X-155999Y604757D01*
X-175475Y596689D01*
G37*
G36*
X-259720Y561793D02*
X-265066Y574699D01*
X-245590Y582767D01*
X-240244Y569861D01*
X-259720Y561793D01*
G37*
G36*
X-158270Y555153D02*
X-163616Y568059D01*
X-144140Y576127D01*
X-138794Y563221D01*
X-158270Y555153D01*
G37*
G36*
X-242515Y520257D02*
X-247861Y533163D01*
X-228385Y541231D01*
X-223039Y528325D01*
X-242515Y520257D01*
G37*
G36*
X259294Y558431D02*
X264640Y571337D01*
X284116Y563269D01*
X278770Y550363D01*
X259294Y558431D01*
G37*
G36*
X175049Y593327D02*
X180395Y606233D01*
X199871Y598165D01*
X194525Y585259D01*
X175049Y593327D01*
G37*
G36*
X242089Y516895D02*
X247435Y529801D01*
X266911Y521733D01*
X261565Y508827D01*
X242089Y516895D01*
G37*
G36*
X157844Y551791D02*
X163190Y564697D01*
X182666Y556629D01*
X177320Y543723D01*
X157844Y551791D01*
G37*
D26*
G36*
X-527351Y244877D02*
X-543518Y251573D01*
X-541987Y255269D01*
X-525820Y248573D01*
X-527351Y244877D01*
G37*
G36*
X-517402Y268898D02*
X-533569Y275594D01*
X-532038Y279290D01*
X-515871Y272594D01*
X-517402Y268898D01*
G37*
G36*
X-524864Y250882D02*
X-541031Y257578D01*
X-539500Y261274D01*
X-523333Y254578D01*
X-524864Y250882D01*
G37*
G36*
X-522376Y256888D02*
X-538543Y263584D01*
X-537012Y267280D01*
X-520845Y260584D01*
X-522376Y256888D01*
G37*
G36*
X-519889Y262893D02*
X-536056Y269589D01*
X-534525Y273285D01*
X-518358Y266589D01*
X-519889Y262893D01*
G37*
D27*
X-402462Y237352D03*
D28*
X-384950Y237350D03*
D29*
X-402463Y219837D03*
D30*
X-384948Y219836D03*
D31*
X-419600Y243600D03*
X-419600Y238600D03*
X-419600Y233600D03*
X-419600Y228600D03*
X-419600Y223600D03*
X-419600Y218600D03*
X-419600Y213600D03*
D32*
X-408700Y202700D03*
X-403700Y202700D03*
X-398700Y202700D03*
X-393700Y202700D03*
X-388700Y202700D03*
X-383700Y202700D03*
X-378700Y202700D03*
D31*
X-367800Y213600D03*
X-367800Y218600D03*
X-367800Y223600D03*
X-367800Y228600D03*
X-367800Y233600D03*
X-367800Y238600D03*
X-367800Y243600D03*
D32*
X-378700Y254500D03*
X-383700Y254500D03*
X-388700Y254500D03*
X-393700Y254500D03*
X-398700Y254500D03*
X-403700Y254500D03*
X-408700Y254500D03*
D33*
X22500Y-15625D03*
D34*
X23125Y-7500D03*
X23125Y-2500D03*
X23125Y2500D03*
X23125Y7500D03*
D33*
X22500Y15625D03*
X17500Y15625D03*
X12500Y15625D03*
X7500Y15625D03*
X2500Y15625D03*
X-2500Y15625D03*
X-7500Y15625D03*
X-12500Y15625D03*
X-17500Y15625D03*
X-22500Y15625D03*
D34*
X-23125Y7500D03*
X-23125Y2500D03*
X-23125Y-2500D03*
X-23125Y-7500D03*
D33*
X-22500Y-15625D03*
X-17500Y-15625D03*
X-12500Y-15625D03*
X-7500Y-15625D03*
X-2500Y-15625D03*
X2500Y-15625D03*
X7500Y-15625D03*
X12500Y-15625D03*
X17500Y-15625D03*
D11*
X90200Y-12700D03*
X62200Y-12700D03*
D12*
X0Y64800D03*
X0Y36800D03*
X12700Y-64800D03*
X12700Y-36800D03*
X-12700Y-64800D03*
X-12700Y-36800D03*
D18*
X-77720Y0D03*
X-49280Y0D03*
D19*
X25400Y65020D03*
X25400Y36580D03*
D18*
X90420Y12700D03*
X61980Y12700D03*
D35*
X-11500Y-96410D03*
X11500Y-114410D03*
X11500Y-96410D03*
X-11500Y-114410D03*
D36*
X109400Y-266700D03*
X68400Y-266700D03*
D37*
X-25400Y-421400D03*
X-25400Y-391400D03*
D18*
X128520Y520700D03*
X100080Y520700D03*
M02*
