G04 EAGLE Gerber RS-274X export*
G75*
%MOMM*%
%FSLAX34Y34*%
%LPD*%
%INSoldermask Top*%
%IPPOS*%
%AMOC8*
5,1,8,0,0,1.08239X$1,22.5*%
G01*
%ADD10C,2.203200*%
%ADD11C,2.703200*%
%ADD12C,3.203200*%
%ADD13R,2.703200X3.703200*%
%ADD14R,1.803200X2.003200*%
%ADD15R,2.003200X1.803200*%
%ADD16R,3.703200X2.703200*%
%ADD17R,1.903200X2.003200*%
%ADD18R,2.003200X1.903200*%
%ADD19C,1.727200*%
%ADD20R,5.703200X4.053200*%
%ADD21R,1.203200X1.603200*%
%ADD22R,1.803200X2.006200*%
%ADD23R,2.006200X1.803200*%
%ADD24R,1.625600X1.625600*%
%ADD25R,0.803200X2.003200*%
%ADD26R,1.473200X1.473200*%
%ADD27R,1.473200X1.473200*%
%ADD28R,0.853200X1.503200*%
%ADD29R,1.703200X1.203200*%
%ADD30R,1.203200X1.703200*%
%ADD31R,6.203200X6.203200*%
%ADD32R,1.600200X2.311400*%
%ADD33C,3.251200*%
%ADD34C,3.505200*%
%ADD35R,1.953200X0.603200*%
%ADD36R,2.743200X2.743200*%
%ADD37R,1.103200X0.457200*%
%ADD38R,0.457200X1.103200*%
%ADD39R,3.303200X3.303200*%
%ADD40C,2.082800*%
%ADD41R,0.453200X0.678200*%
%ADD42R,0.578200X0.453200*%
%ADD43R,1.503200X1.303200*%
%ADD44R,2.003200X3.903200*%
%ADD45R,2.203200X1.703200*%
%ADD46C,0.959600*%


D10*
X-67500Y-570000D03*
X67500Y-570000D03*
X-67500Y518700D03*
X67500Y518700D03*
D11*
X-428960Y91240D03*
X-428960Y-91240D03*
X428960Y91240D03*
X428960Y-91240D03*
D12*
X-250000Y360000D03*
X250000Y360000D03*
X250000Y-300000D03*
X-250000Y-300000D03*
D13*
X101600Y-424700D03*
X101600Y-489700D03*
D14*
G36*
X344994Y428242D02*
X332244Y440992D01*
X346408Y455156D01*
X359158Y442406D01*
X344994Y428242D01*
G37*
G36*
X364792Y408444D02*
X352042Y421194D01*
X366206Y435358D01*
X378956Y422608D01*
X364792Y408444D01*
G37*
D15*
X-444500Y204500D03*
X-444500Y176500D03*
X241300Y496600D03*
X241300Y468600D03*
X-152400Y522000D03*
X-152400Y494000D03*
D16*
X-172200Y-317500D03*
X-107200Y-317500D03*
D15*
X-177800Y293400D03*
X-177800Y265400D03*
X139700Y443200D03*
X139700Y471200D03*
D14*
G36*
X-428242Y344994D02*
X-440992Y332244D01*
X-455156Y346408D01*
X-442406Y359158D01*
X-428242Y344994D01*
G37*
G36*
X-408444Y364792D02*
X-421194Y352042D01*
X-435358Y366206D01*
X-422608Y378956D01*
X-408444Y364792D01*
G37*
X-64800Y571500D03*
X-36800Y571500D03*
D17*
X-228600Y-385900D03*
X-228600Y-426900D03*
D18*
X-436700Y292100D03*
X-477700Y292100D03*
D19*
X25400Y-335280D02*
X25400Y-350520D01*
X0Y-350520D02*
X0Y-335280D01*
X-25400Y-335280D02*
X-25400Y-350520D01*
D20*
X-127000Y-506950D03*
X-127000Y-407450D03*
D21*
X-317500Y179500D03*
X-327000Y201500D03*
X-308000Y201500D03*
X-317500Y268400D03*
X-327000Y290400D03*
X-308000Y290400D03*
D22*
X179320Y406400D03*
X150880Y406400D03*
X150880Y266700D03*
X179320Y266700D03*
D23*
X-177800Y201680D03*
X-177800Y230120D03*
D22*
X61980Y76200D03*
X90420Y76200D03*
G36*
X-346262Y395577D02*
X-359013Y408328D01*
X-344828Y422513D01*
X-332077Y409762D01*
X-346262Y395577D01*
G37*
G36*
X-366372Y415687D02*
X-379123Y428438D01*
X-364938Y442623D01*
X-352187Y429872D01*
X-366372Y415687D01*
G37*
G36*
X-320862Y420977D02*
X-333613Y433728D01*
X-319428Y447913D01*
X-306677Y435162D01*
X-320862Y420977D01*
G37*
G36*
X-340972Y441087D02*
X-353723Y453838D01*
X-339538Y468023D01*
X-326787Y455272D01*
X-340972Y441087D01*
G37*
X179320Y127000D03*
X150880Y127000D03*
D23*
X-190500Y493780D03*
X-190500Y522220D03*
X279400Y468380D03*
X279400Y496820D03*
D22*
X179320Y368300D03*
X150880Y368300D03*
X11180Y571500D03*
X39620Y571500D03*
X115820Y571500D03*
X87380Y571500D03*
G36*
X400657Y352612D02*
X413408Y365363D01*
X427593Y351178D01*
X414842Y338427D01*
X400657Y352612D01*
G37*
G36*
X420767Y372722D02*
X433518Y385473D01*
X447703Y371288D01*
X434952Y358537D01*
X420767Y372722D01*
G37*
G36*
X428597Y325942D02*
X441348Y338693D01*
X455533Y324508D01*
X442782Y311757D01*
X428597Y325942D01*
G37*
G36*
X448707Y346052D02*
X461458Y358803D01*
X475643Y344618D01*
X462892Y331867D01*
X448707Y346052D01*
G37*
X-303280Y228600D03*
X-331720Y228600D03*
X-303280Y317500D03*
X-331720Y317500D03*
X150880Y228600D03*
X179320Y228600D03*
D19*
X537576Y286545D02*
X551726Y292205D01*
X561159Y268622D02*
X547009Y262962D01*
X556441Y239378D02*
X570591Y245038D01*
X580024Y221455D02*
X565874Y215795D01*
D24*
X-203219Y-49214D03*
X-203219Y-29214D03*
X-203219Y-9214D03*
X-203219Y10786D03*
X-203219Y30786D03*
X-203219Y50786D03*
D25*
X69850Y476550D03*
X57150Y476550D03*
X44450Y476550D03*
X31750Y476550D03*
X19050Y476550D03*
X6350Y476550D03*
X-6350Y476550D03*
X-19050Y476550D03*
X-31750Y476550D03*
X-44450Y476550D03*
X-57150Y476550D03*
X-69850Y476550D03*
X-69850Y387050D03*
X-57150Y387050D03*
X-44450Y387050D03*
X-31750Y387050D03*
X-19050Y387050D03*
X-6350Y387050D03*
X6350Y387050D03*
X19050Y387050D03*
X31750Y387050D03*
X44450Y387050D03*
X57150Y387050D03*
X69850Y387050D03*
D26*
X-76200Y596900D03*
X-50800Y596900D03*
X-25400Y596900D03*
X0Y596900D03*
X25400Y596900D03*
X50800Y596900D03*
X76200Y596900D03*
D27*
G36*
X373380Y468373D02*
X362963Y478790D01*
X373380Y489207D01*
X383797Y478790D01*
X373380Y468373D01*
G37*
G36*
X391341Y450412D02*
X380924Y460829D01*
X391341Y471246D01*
X401758Y460829D01*
X391341Y450412D01*
G37*
G36*
X409301Y432452D02*
X398884Y442869D01*
X409301Y453286D01*
X419718Y442869D01*
X409301Y432452D01*
G37*
G36*
X427262Y414491D02*
X416845Y424908D01*
X427262Y435325D01*
X437679Y424908D01*
X427262Y414491D01*
G37*
G36*
X445222Y396531D02*
X434805Y406948D01*
X445222Y417365D01*
X455639Y406948D01*
X445222Y396531D01*
G37*
G36*
X463183Y378570D02*
X452766Y388987D01*
X463183Y399404D01*
X473600Y388987D01*
X463183Y378570D01*
G37*
G36*
X481143Y360610D02*
X470726Y371027D01*
X481143Y381444D01*
X491560Y371027D01*
X481143Y360610D01*
G37*
G36*
X-472183Y368300D02*
X-482600Y357883D01*
X-493017Y368300D01*
X-482600Y378717D01*
X-472183Y368300D01*
G37*
G36*
X-454222Y386261D02*
X-464639Y375844D01*
X-475056Y386261D01*
X-464639Y396678D01*
X-454222Y386261D01*
G37*
G36*
X-436262Y404221D02*
X-446679Y393804D01*
X-457096Y404221D01*
X-446679Y414638D01*
X-436262Y404221D01*
G37*
G36*
X-418301Y422182D02*
X-428718Y411765D01*
X-439135Y422182D01*
X-428718Y432599D01*
X-418301Y422182D01*
G37*
G36*
X-400341Y440142D02*
X-410758Y429725D01*
X-421175Y440142D01*
X-410758Y450559D01*
X-400341Y440142D01*
G37*
G36*
X-382380Y458103D02*
X-392797Y447686D01*
X-403214Y458103D01*
X-392797Y468520D01*
X-382380Y458103D01*
G37*
G36*
X-364420Y476063D02*
X-374837Y465646D01*
X-385254Y476063D01*
X-374837Y486480D01*
X-364420Y476063D01*
G37*
D28*
X19400Y-455700D03*
X6700Y-455700D03*
X-6000Y-455700D03*
X-18700Y-455700D03*
X-18700Y-509500D03*
X-6000Y-509500D03*
X6700Y-509500D03*
X19400Y-509500D03*
D29*
X-87420Y254150D03*
X-87420Y241450D03*
X-87420Y228750D03*
X-87420Y216050D03*
X-87420Y203350D03*
X-87420Y190650D03*
X-87420Y177950D03*
X-87420Y165250D03*
D30*
X62380Y109750D03*
D29*
X97580Y127150D03*
X97580Y139850D03*
X97580Y152550D03*
X97580Y165250D03*
X97580Y177950D03*
X97580Y190650D03*
X97580Y203350D03*
D30*
X-26520Y109750D03*
D29*
X-87420Y152550D03*
X-87420Y139850D03*
X-87420Y127150D03*
D30*
X-51920Y109750D03*
X-39220Y109750D03*
D29*
X-87420Y266850D03*
X-87420Y279550D03*
X-87420Y292250D03*
D30*
X-13820Y109750D03*
X-1120Y109750D03*
X11580Y109750D03*
X49680Y109750D03*
X36980Y109750D03*
X24280Y109750D03*
D29*
X97580Y216050D03*
X97580Y228750D03*
X97580Y241450D03*
X97580Y254150D03*
X97580Y266850D03*
X97580Y279550D03*
X97580Y292250D03*
D31*
X8080Y215250D03*
D32*
G36*
X-176025Y595362D02*
X-182149Y610145D01*
X-160795Y618990D01*
X-154671Y604207D01*
X-176025Y595362D01*
G37*
G36*
X-260270Y560466D02*
X-266394Y575249D01*
X-245040Y584094D01*
X-238916Y569311D01*
X-260270Y560466D01*
G37*
G36*
X-158820Y553826D02*
X-164944Y568609D01*
X-143590Y577454D01*
X-137466Y562671D01*
X-158820Y553826D01*
G37*
G36*
X-243065Y518930D02*
X-249189Y533713D01*
X-227835Y542558D01*
X-221711Y527775D01*
X-243065Y518930D01*
G37*
G36*
X257966Y557881D02*
X264090Y572664D01*
X285444Y563819D01*
X279320Y549036D01*
X257966Y557881D01*
G37*
G36*
X173721Y592777D02*
X179845Y607560D01*
X201199Y598715D01*
X195075Y583932D01*
X173721Y592777D01*
G37*
G36*
X240761Y516345D02*
X246885Y531128D01*
X268239Y522283D01*
X262115Y507500D01*
X240761Y516345D01*
G37*
G36*
X156516Y551241D02*
X162640Y566024D01*
X183994Y557179D01*
X177870Y542396D01*
X156516Y551241D01*
G37*
D33*
X194310Y-419100D02*
X224790Y-419100D01*
D34*
X220980Y-482600D02*
X220980Y-515620D01*
D35*
G36*
X-526801Y243550D02*
X-544845Y251023D01*
X-542537Y256596D01*
X-524493Y249123D01*
X-526801Y243550D01*
G37*
G36*
X-516852Y267571D02*
X-534896Y275044D01*
X-532588Y280617D01*
X-514544Y273144D01*
X-516852Y267571D01*
G37*
G36*
X-524314Y249555D02*
X-542358Y257028D01*
X-540050Y262601D01*
X-522006Y255128D01*
X-524314Y249555D01*
G37*
G36*
X-521826Y255561D02*
X-539870Y263034D01*
X-537562Y268607D01*
X-519518Y261134D01*
X-521826Y255561D01*
G37*
G36*
X-519339Y261566D02*
X-537383Y269039D01*
X-535075Y274612D01*
X-517031Y267139D01*
X-519339Y261566D01*
G37*
D36*
G36*
X-559459Y299886D02*
X-548962Y325229D01*
X-523619Y314732D01*
X-534116Y289389D01*
X-559459Y299886D01*
G37*
G36*
X-587969Y231057D02*
X-577472Y256400D01*
X-552129Y245903D01*
X-562626Y220560D01*
X-587969Y231057D01*
G37*
D37*
X-419600Y243600D03*
X-419600Y238600D03*
X-419600Y233600D03*
X-419600Y228600D03*
X-419600Y223600D03*
X-419600Y218600D03*
X-419600Y213600D03*
D38*
X-408700Y202700D03*
X-403700Y202700D03*
X-398700Y202700D03*
X-393700Y202700D03*
X-388700Y202700D03*
X-383700Y202700D03*
X-378700Y202700D03*
D37*
X-367800Y213600D03*
X-367800Y218600D03*
X-367800Y223600D03*
X-367800Y228600D03*
X-367800Y233600D03*
X-367800Y238600D03*
X-367800Y243600D03*
D38*
X-378700Y254500D03*
X-383700Y254500D03*
X-388700Y254500D03*
X-393700Y254500D03*
X-398700Y254500D03*
X-403700Y254500D03*
X-408700Y254500D03*
D39*
X-393700Y228600D03*
D33*
X101600Y-334010D02*
X101600Y-364490D01*
D34*
X165100Y-337820D02*
X198120Y-337820D01*
D40*
X-304800Y-419100D03*
X-279400Y-419100D03*
D41*
X22500Y-15625D03*
D42*
X23125Y-7500D03*
X23125Y-2500D03*
X23125Y2500D03*
X23125Y7500D03*
D41*
X22500Y15625D03*
X17500Y15625D03*
X12500Y15625D03*
X7500Y15625D03*
X2500Y15625D03*
X-2500Y15625D03*
X-7500Y15625D03*
X-12500Y15625D03*
X-17500Y15625D03*
X-22500Y15625D03*
D42*
X-23125Y7500D03*
X-23125Y2500D03*
X-23125Y-2500D03*
X-23125Y-7500D03*
D41*
X-22500Y-15625D03*
X-17500Y-15625D03*
X-12500Y-15625D03*
X-7500Y-15625D03*
X-2500Y-15625D03*
X2500Y-15625D03*
X7500Y-15625D03*
X12500Y-15625D03*
X17500Y-15625D03*
D14*
X90200Y-12700D03*
X62200Y-12700D03*
D15*
X0Y64800D03*
X0Y36800D03*
X12700Y-64800D03*
X12700Y-36800D03*
X-12700Y-64800D03*
X-12700Y-36800D03*
D22*
X-77720Y0D03*
X-49280Y0D03*
D23*
X25400Y65020D03*
X25400Y36580D03*
D22*
X90420Y12700D03*
X61980Y12700D03*
D24*
X203200Y50800D03*
X203200Y30800D03*
X203200Y10800D03*
X203200Y-9200D03*
X203200Y-29200D03*
X203200Y-49200D03*
D43*
X-11500Y-96410D03*
X11500Y-114410D03*
X11500Y-96410D03*
X-11500Y-114410D03*
D44*
X109400Y-266700D03*
X68400Y-266700D03*
D45*
X-25400Y-421400D03*
X-25400Y-391400D03*
D22*
X128520Y520700D03*
X100080Y520700D03*
D46*
X-419100Y292100D03*
X-76200Y25400D03*
X-64770Y106680D03*
X-13970Y158750D03*
X-140970Y285750D03*
X-101600Y292100D03*
X119267Y470604D03*
X-520700Y241300D03*
X-14687Y3207D03*
X92710Y391160D03*
X88900Y101600D03*
X114300Y-12700D03*
X114300Y88900D03*
X81162Y139700D03*
X81162Y152400D03*
X81162Y165100D03*
X81162Y114300D03*
X139700Y177800D03*
X114300Y177800D03*
X-63500Y215900D03*
X138430Y190500D03*
X114300Y190500D03*
X-63500Y228600D03*
X127000Y114300D03*
X127000Y279400D03*
X177800Y292100D03*
X-381000Y292100D03*
X177800Y203200D03*
X-394671Y280371D03*
X-152400Y114300D03*
X-50800Y127000D03*
X-368300Y279400D03*
X-114300Y101600D03*
X304800Y457200D03*
X-228600Y177800D03*
X114300Y127150D03*
X190500Y165100D03*
X19050Y491490D03*
X31750Y491490D03*
X165100Y88900D03*
X-114300Y139700D03*
X-152400Y139700D03*
M02*
