M48
;GenerationSoftware,Autodesk,EAGLE,9.6.2*%
;CreationDate,2021-01-23T21:06:31Z*%
FMAT,2
ICI,OFF
METRIC,TZ,000.000
T8C0.350
T7C0.450
T6C0.600
T5C1.016
T4C1.200
T3C2.000
T2C2.500
T1C3.000
%
G90
M71
T1
X-25000Y36000
X25000Y36000
X-25000Y-30000
X25000Y-30000
T2
X-42896Y9124
X-42896Y-9124
X42896Y9124
X42896Y-9124
T3
X-6750Y-57000
X6750Y-57000
X-6750Y51870
X6750Y51870
T4
X-57005Y23848
X-54154Y30731
T5
X-27940Y-41910
X-30480Y-41910
X57295Y21862
X56352Y24221
X55408Y26579
X54465Y28938
X-2540Y-34290
X0Y-34290
X2540Y-34290
T6
X-5080Y59690
X-2540Y59690
X0Y59690
X2540Y59690
X5080Y59690
X7620Y59690
X37338Y47879
X39134Y46083
X40930Y44287
X42726Y42491
X44522Y40695
X46318Y38899
X-20322Y-921
X48114Y37103
X-48260Y36830
X-46464Y38626
X-44668Y40422
X-42872Y42218
X-41076Y44014
X-39280Y45810
X-37484Y47606
X18161Y-33782
X20320Y5080
X20320Y3080
X20320Y1080
X20320Y-920
X20320Y-2920
X20320Y-4920
X22098Y-49911
X-20322Y-4921
X-20322Y-2921
X-20322Y1079
X-20322Y3079
X-20322Y5079
X-7620Y59690
T7
X20955Y-41910
X10160Y-34925
T8
X-6477Y10668
X-1397Y15875
X-14097Y28575
X-10160Y29210
X11927Y47060
X-52070Y24130
X-1469Y321
X9271Y39116
X8890Y10160
X11430Y-1270
X8116Y13970
X8116Y15240
X8116Y16510
X8116Y11430
X13970Y17780
X11430Y17780
X-6350Y21590
X13843Y19050
X11430Y19050
X-6350Y22860
X12700Y11430
X12700Y27940
X17780Y29210
X-38100Y29210
X17780Y20320
X1905Y49149
X19050Y16510
X11430Y12715
X-41910Y29210
X11430Y8890
X-36830Y27940
X-5080Y12700
X-7620Y2540
X-22860Y17780
X-15240Y11430
X-39467Y28037
X30480Y45720
X-11430Y10160
X-15240Y13970
X-11430Y13970
X16510Y8890
X3175Y49149
M30